<svg xmlns:xlink="http://www.w3.org/1999/xlink" width="26" xmlns="http://www.w3.org/2000/svg" height="26" id="screenshot-fba4baab-354f-80bc-8002-2d019d0205c7" viewBox="-0.5 -0.5 26 26" style="-webkit-print-color-adjust: exact;" fill="none" version="1.1"><g id="shape-fba4baab-354f-80bc-8002-2d019d0205c7" rx="0" ry="0"><g id="shape-fba4baab-354f-80bc-8002-2d019d0205c8"><g class="fills" id="fills-fba4baab-354f-80bc-8002-2d019d0205c8"><ellipse rx="12.5" ry="12.5" cx="12.5" cy="12.5" transform="matrix(1.000000, 0.000000, 0.000000, 1.000000, 0.000000, 0.000000)"/></g><g id="strokes-fba4baab-354f-80bc-8002-2d019d0205c8" class="strokes"><g class="stroke-shape"><ellipse rx="12.5" ry="12.5" cx="12.5" cy="12.5" transform="matrix(1.000000, 0.000000, 0.000000, 1.000000, 0.000000, 0.000000)" style="fill: none; stroke-width: 1; stroke: rgb(32, 19, 75); stroke-opacity: 1;"/></g></g></g><g id="shape-fba4baab-354f-80bc-8002-2d019d0205c9"><g class="fills" id="fills-fba4baab-354f-80bc-8002-2d019d0205c9"><path rx="0" ry="0" d="M6.871,18.713L13.012,11.404L9.942,6.287L16.959,17.836L20.410,18.031"/></g><g id="strokes-fba4baab-354f-80bc-8002-2d019d0205c9" class="strokes"><g class="stroke-shape"><path rx="0" ry="0" d="M6.871,18.713L13.012,11.404L9.942,6.287L16.959,17.836L20.410,18.031" style="fill: none; stroke-width: 1; stroke: rgb(32, 19, 75); stroke-opacity: 1;"/></g></g></g><g id="shape-fba4baab-354f-80bc-8002-2d019d0205ca"><g class="fills" id="fills-fba4baab-354f-80bc-8002-2d019d0205ca"><path rx="0" ry="0" d="M11.111,6.433L14.714,6.433M14.201,11.421L16.667,11.487"/></g><g id="strokes-fba4baab-354f-80bc-8002-2d019d0205ca" class="strokes"><g class="stroke-shape"><path rx="0" ry="0" d="M11.111,6.433L14.714,6.433M14.201,11.421L16.667,11.487" style="fill: none; stroke-width: 1; stroke: rgb(32, 19, 75); stroke-opacity: 1;"/></g></g></g></g></svg>